<?xml version="1.0" encoding="utf-8"?>
<!-- Generator: Adobe Illustrator 26.0.2, SVG Export Plug-In . SVG Version: 6.00 Build 0)  -->
<svg version="1.1" id="レイヤー_1" xmlns="http://www.w3.org/2000/svg" xmlns:xlink="http://www.w3.org/1999/xlink" x="0px"
	 y="0px" viewBox="0 0 189.6 188.7" style="enable-background:new 0 0 189.6 188.7;" xml:space="preserve">
<style type="text/css">
	.st0{fill:#0068B6;}
	.st1{fill:#E60012;}
	.st2{fill:#FCC700;}
</style>
<g>
	<path class="st0" d="M178.3,3.9c2.9-2.7,7.4-2.5,10.1,0.4l0,0c2.7,2.9,2.5,7.4-0.4,10.1L93.1,102c-2.9,2.7-7.4,2.5-10.1-0.4l0,0
		c-2.7-2.9-2.5-7.4,0.4-10.1L178.3,3.9z"/>
	<path class="st1" d="M50.2,149.4c0.9,1,3.9-0.1,8.2-2.7c-3,4.1-4.3,7-3.4,8c0.9,1,3.9-0.1,8.2-2.7c-3,4.1-4.3,7-3.4,8
		c0.9,1,3.9-0.1,8.2-2.7c-3,4.1-4.3,7-3.4,8c0.9,1,3.9-0.1,8.2-2.7c-3,4.1-4.3,7-3.4,8c0.9,1,3.9-0.1,8.2-2.7c-3,4.1-4.3,7-3.4,8
		c0.9,1,3.9-0.1,8.2-2.7c-3,4.1-4.3,7-3.4,8c0.9,1,3.9-0.1,8.2-2.7c-3,4.1-4.3,7-3.4,8c2.1,2.3,15.7-6.7,30.2-20.1
		c14.6-13.4,24.6-26.2,22.5-28.5c-0.9-1-3.9,0.1-8.2,2.7c3-4.1,4.3-7,3.4-8c-0.9-1-3.9,0.1-8.2,2.7c3-4.1,4.3-7,3.4-8
		c-0.9-1-3.9,0.1-8.2,2.7c3-4.1,4.3-7,3.4-8c-0.9-1-3.9,0.1-8.2,2.7c3-4.1,4.3-7,3.4-8c-0.9-1-3.9,0.1-8.2,2.7c3-4.1,4.3-7,3.4-8
		c-0.9-1-3.9,0.1-8.2,2.7c3-4.1,4.3-7,3.4-8c-0.9-1-3.9,0.1-8.2,2.7c3-4.1,4.3-7,3.4-8c-2.1-2.3-15.7,6.7-30.2,20.1
		C58.1,134.3,48,147.1,50.2,149.4z"/>
	<path class="st1" d="M-0.4,94.6c0.9,1,3.9-0.1,8.2-2.7c-3,4.1-4.3,7-3.4,8c0.9,1,3.9-0.1,8.2-2.7c-3,4.1-4.3,7-3.4,8
		c0.9,1,3.9-0.1,8.2-2.7c-3,4.1-4.3,7-3.4,8c0.9,1,3.9-0.1,8.2-2.7c-3,4.1-4.3,7-3.4,8c0.9,1,3.9-0.1,8.2-2.7c-3,4.1-4.3,7-3.4,8
		c0.9,1,3.9-0.1,8.2-2.7c-3,4.1-4.3,7-3.4,8c0.9,1,3.9-0.1,8.2-2.7c-3,4.1-4.3,7-3.4,8c2.1,2.3,15.7-6.7,30.2-20.1
		C78.4,98,88.5,85.2,86.3,82.9c-0.9-1-3.9,0.1-8.2,2.7c3-4.1,4.3-7,3.4-8c-0.9-1-3.9,0.1-8.2,2.7c3-4.1,4.3-7,3.4-8
		c-0.9-1-3.9,0.1-8.2,2.7c3-4.1,4.3-7,3.4-8c-0.9-1-3.9,0.1-8.2,2.7c3-4.1,4.3-7,3.4-8c-0.9-1-3.9,0.1-8.2,2.7c3-4.1,4.3-7,3.4-8
		c-0.9-1-3.9,0.1-8.2,2.7c3-4.1,4.3-7,3.4-8c-0.9-1-3.9,0.1-8.2,2.7c3-4.1,4.3-7,3.4-8c-2.1-2.3-15.7,6.7-30.2,20.1
		C7.5,79.5-2.6,92.3-0.4,94.6z"/>
	<path class="st2" d="M76.4,93.3c2.9-2.7,7.4-2.5,10.1,0.4l4.9,5.3c2.7,2.9,2.5,7.4-0.4,10.1l-31.6,29.2c-2.9,2.7-7.5,2.5-10.1-0.4
		l-4.9-5.3c-2.7-2.9-2.5-7.4,0.4-10.1L76.4,93.3z"/>
</g>
</svg>
