<?xml version="1.0" encoding="utf-8"?>
<!-- Generator: Adobe Illustrator 16.0.0, SVG Export Plug-In . SVG Version: 6.00 Build 0)  -->
<!DOCTYPE svg PUBLIC "-//W3C//DTD SVG 1.1//EN" "http://www.w3.org/Graphics/SVG/1.1/DTD/svg11.dtd">
<svg version="1.1" id="レイヤー_1" xmlns="http://www.w3.org/2000/svg" xmlns:xlink="http://www.w3.org/1999/xlink" x="0px"
	 y="0px" width="148px" height="211px" viewBox="-9 -5.775 148 211" enable-background="new -9 -5.775 148 211"
	 xml:space="preserve">
<g>
	<path fill="#0068B6" d="M72.055,193.391c0,3.961-3.211,7.17-7.17,7.17l0,0c-3.962,0-7.17-3.209-7.17-7.17V64.311
		c0-3.961,3.209-7.171,7.17-7.171l0,0c3.959,0,7.17,3.21,7.17,7.171V193.391z"/>
	<path fill="#E60012" d="M51.951,0.561c-1.354,0-2.6,2.952-3.581,7.876c-0.984-4.924-2.229-7.876-3.588-7.876
		c-1.355,0-2.603,2.952-3.585,7.876c-0.983-4.924-2.228-7.876-3.586-7.876c-1.357,0-2.603,2.952-3.585,7.876
		c-0.984-4.924-2.229-7.876-3.585-7.876c-1.357,0-2.604,2.952-3.586,7.876c-0.983-4.924-2.229-7.876-3.586-7.876
		c-1.355,0-2.604,2.952-3.585,7.876c-0.982-4.924-2.228-7.876-3.586-7.876c-1.356,0-2.603,2.952-3.585,7.876
		c-0.982-4.924-2.229-7.876-3.585-7.876c-1.357,0-2.603,2.952-3.586,7.876C4.359,3.513,3.113,0.561,1.757,0.561
		c-3.168,0-5.737,16.053-5.737,35.855c0,19.803,2.569,35.854,5.737,35.854c1.356,0,2.602-2.951,3.585-7.875
		c0.983,4.924,2.229,7.875,3.586,7.875c1.355,0,2.603-2.951,3.585-7.875c0.982,4.924,2.229,7.875,3.585,7.875
		c1.358,0,2.604-2.951,3.586-7.875c0.982,4.924,2.23,7.875,3.585,7.875c1.357,0,2.603-2.951,3.586-7.875
		c0.982,4.924,2.229,7.875,3.586,7.875c1.355,0,2.601-2.951,3.585-7.875c0.982,4.924,2.228,7.875,3.585,7.875
		c1.358,0,2.603-2.951,3.586-7.875c0.982,4.924,2.229,7.875,3.585,7.875c1.358,0,2.604-2.951,3.588-7.875
		c0.981,4.924,2.228,7.875,3.581,7.875c3.17,0,5.738-16.051,5.738-35.854C57.689,16.614,55.121,0.561,51.951,0.561z"/>
	<path fill="#E60012" d="M126.534,0.561c-1.356,0-2.601,2.952-3.586,7.876c-0.984-4.924-2.231-7.876-3.586-7.876
		c-1.358,0-2.601,2.952-3.585,7.876c-0.984-4.924-2.232-7.876-3.586-7.876c-1.357,0-2.601,2.952-3.586,7.876
		c-0.983-4.924-2.23-7.876-3.584-7.876c-1.357,0-2.601,2.952-3.587,7.876c-0.984-4.924-2.229-7.876-3.586-7.876
		c-1.355,0-2.6,2.952-3.584,7.876c-0.985-4.924-2.231-7.876-3.587-7.876c-1.356,0-2.601,2.952-3.584,7.876
		c-0.984-4.924-2.231-7.876-3.585-7.876c-1.359,0-2.602,2.952-3.587,7.876c-0.984-4.924-2.23-7.876-3.584-7.876
		c-3.169,0-5.738,16.053-5.738,35.855c0,19.803,2.569,35.854,5.738,35.854c1.354,0,2.6-2.951,3.584-7.875
		c0.985,4.924,2.228,7.875,3.587,7.875c1.354,0,2.601-2.951,3.585-7.875c0.983,4.924,2.228,7.875,3.584,7.875
		c1.355,0,2.602-2.951,3.587-7.875c0.984,4.924,2.229,7.875,3.584,7.875c1.356,0,2.602-2.951,3.586-7.875
		c0.986,4.924,2.229,7.875,3.587,7.875c1.354,0,2.601-2.951,3.584-7.875c0.985,4.924,2.229,7.875,3.586,7.875
		c1.354,0,2.602-2.951,3.586-7.875c0.984,4.924,2.227,7.875,3.585,7.875c1.354,0,2.602-2.951,3.586-7.875
		c0.985,4.924,2.229,7.875,3.586,7.875c3.168,0,5.734-16.051,5.734-35.854C132.269,16.614,129.702,0.561,126.534,0.561z"/>
	<path fill="#FCC700" d="M75.466,57.929c0,3.962-3.211,7.171-7.169,7.171h-7.174c-3.959,0-7.172-3.209-7.172-7.171V14.904
		c0-3.96,3.213-7.173,7.172-7.173h7.174c3.958,0,7.169,3.212,7.169,7.173V57.929z"/>
</g>
</svg>
